<svg version="1.2" xmlns="http://www.w3.org/2000/svg" viewBox="0 0 512 512" width="16" height="16">
	<title>pesa-svg</title>
	<style>
		.s0 { fill: #010101 } 
		.s1 { fill: #040403 } 
		.s2 { fill: #040504 } 
	</style>
	<path id="Layer" class="s0" d="m137.2 379.8c-36.7-36.8-73.3-73.3-109.8-109.8-8.6-8.7-10.8-19.7-6.3-30.2 4.4-10 15-16.7 26-16.1 7.1 0.4 13 3.4 18 8.5 67 67 134 134.1 201.1 201.1 5.4 5.4 10.8 10.8 16.2 16.3 10.4 10.4 10.6 25.7 0.7 36.8-9.6 10.7-25.8 12-36.7 2.2-9.3-8.3-17.9-17.4-26.7-26.2-27.4-27.4-54.8-54.9-82.5-82.6z"/>
	<path id="Layer" class="s0" d="m292.9 50.1c64.1 64.1 127.9 128 191.8 191.8 9 9 13.2 18.9 8.4 31.5-6.7 17.4-29.7 22.8-42.9 9.6q-109.5-109.3-218.8-218.8c-9.7-9.7-10-25.6-1.1-35.4 10.6-11.5 25.8-13.4 36.9-3.7 8.9 7.8 17 16.5 25.7 25z"/>
	<path id="Layer" class="s0" d="m338.2 68.8c-8.5-7.6-13.9-16.3-11.4-27.9 2.4-10.7 9.1-18 19.8-21 9.9-2.6 18.4 0.3 25.5 7.4q57.5 57.4 114.9 114.8c10.2 10.3 10.9 26.1 1.7 36.1-11.1 12-26.6 13.5-38.1 2.7-14.4-13.5-28.1-27.7-42-41.6-23.4-23.4-46.8-46.9-70.4-70.5z"/>
	<path id="Layer" class="s0" d="m83.6 428.4c-18.9-18.8-37.5-37.4-56.1-56-10.7-10.8-11.5-26.6-1.9-36.8 11.1-11.9 26.6-13.5 38-2.3q58.9 58 116.9 116.9c11.4 11.6 9.8 27.3-2.3 38.5-10.2 9.4-25.9 8.4-36.8-2.4-19.2-19.2-38.4-38.4-57.8-57.9z"/>
	<path id="Layer" class="s1" d="m248.6 294.6c-15.8 15.8-31.3 31.4-46.8 47q-14.8-14.7-29.2-29c46.7-46.6 93.3-93.2 139.8-139.7 9.4 9.4 19.1 19.1 29.1 29q-46 46-92.9 92.7z"/>
	<path id="Layer" class="s2" d="m482.7 60.7q-12.6 12.8-24.4 24.9c-10.2-10.2-19.8-19.9-29.3-29.4 10.6-10.6 21.6-21.7 32.3-32.4 9.5 9.5 19.2 19.1 29.3 29.3-2.2 2.1-5 4.7-7.9 7.6z"/>
	<path id="Layer" class="s2" d="m37.6 476.4c-5.1-4.8-9.9-9.4-14.4-13.7 11.6-11.5 22.6-22.5 33.3-33.2 9.1 9.1 18.7 18.8 28.3 28.4-10.4 10.4-21.5 21.4-33.1 33q-6.7-6.9-14.1-14.5z"/>
</svg>