<?xml version="1.0" standalone="no"?>
<!DOCTYPE svg PUBLIC "-//W3C//DTD SVG 20010904//EN"
 "http://www.w3.org/TR/2001/REC-SVG-20010904/DTD/svg10.dtd">
<svg version="1.0" xmlns="http://www.w3.org/2000/svg"
 width="1024.000000pt" height="1024.000000pt" viewBox="0 0 1024.000000 1024.000000"
 preserveAspectRatio="xMidYMid meet">

<g transform="translate(0.000000,1024.000000) scale(0.100000,-0.100000)"
fill="#000000" stroke="none">
<path d="M5850 9469 c-56 -11 -94 -26 -143 -57 -33 -20 -47 -22 -90 -17 -53 7
-168 -12 -257 -42 -82 -28 -168 -76 -227 -127 -32 -28 -82 -66 -111 -84 -28
-19 -67 -55 -85 -81 -25 -34 -51 -55 -99 -79 -119 -59 -215 -182 -253 -328 -8
-32 -15 -72 -15 -89 0 -40 -11 -54 -88 -109 -79 -58 -146 -149 -172 -233 -11
-36 -23 -111 -27 -166 l-6 -101 -53 -63 c-73 -85 -86 -116 -92 -203 -4 -61
-10 -81 -32 -112 -35 -48 -54 -126 -46 -181 4 -23 18 -66 32 -95 31 -64 28
-93 -17 -158 -31 -45 -113 -113 -136 -114 -21 0 -15 -14 17 -45 17 -16 30 -37
30 -46 0 -41 -98 -119 -150 -119 -17 0 -10 -12 40 -75 34 -41 73 -83 88 -93
38 -28 129 -72 145 -72 17 0 32 -104 21 -136 -7 -18 -6 -18 12 -3 21 17 157
99 165 99 5 0 12 -120 13 -232 1 -43 3 -78 6 -78 11 0 87 54 121 87 l37 35 12
-39 c22 -67 51 -115 101 -169 62 -64 139 -100 250 -116 62 -8 95 -19 124 -38
22 -15 59 -37 81 -48 43 -22 54 -37 54 -75 0 -38 45 -121 86 -157 21 -19 64
-48 94 -64 l55 -29 23 -151 c13 -83 26 -164 29 -179 5 -27 5 -27 -23 -15 -16
7 -65 33 -108 58 -71 40 -87 45 -140 45 -47 0 -74 -7 -116 -28 -51 -26 -60
-27 -103 -17 -61 13 -129 -1 -183 -40 -37 -26 -49 -29 -117 -29 -78 1 -98 -6
-157 -49 -31 -24 -43 -26 -126 -27 -113 0 -110 2 -206 -157 l-71 -118 17 -58
c25 -92 28 -88 -76 -95 -264 -17 -509 -146 -662 -349 -16 -21 -45 -72 -65
-113 l-37 -74 4 87 c7 154 -25 272 -177 664 -160 414 -209 596 -257 952 -18
139 -19 306 -1 330 7 9 53 31 102 47 72 24 99 29 137 24 106 -15 231 48 313
157 28 37 61 69 85 81 45 21 71 53 91 110 12 34 17 38 39 33 77 -18 118 -18
143 -2 33 22 57 83 57 146 0 60 -21 83 -90 100 l-48 11 -4 92 c-4 89 -12 115
-58 187 -5 8 -16 40 -24 71 -27 98 -117 179 -218 195 -23 4 -65 22 -92 41
-148 102 -299 74 -445 -83 l-68 -73 -42 13 c-29 8 -48 22 -61 43 -34 56 -106
86 -159 65 -21 -7 -30 -4 -58 24 -35 35 -69 44 -121 31 -28 -7 -39 -4 -67 17
-64 49 -133 43 -202 -17 -30 -26 -35 -28 -29 -11 11 37 -21 171 -59 244 -77
144 -197 220 -353 220 -30 0 -67 7 -85 17 -21 11 -56 17 -102 17 -61 0 -78 -4
-133 -33 -103 -56 -216 -191 -284 -339 -22 -49 -33 -62 -45 -58 -9 4 -49 15
-90 26 -69 18 -77 18 -105 4 -36 -18 -58 -67 -58 -127 0 -68 24 -91 124 -117
l83 -22 6 -89 c4 -59 13 -104 27 -136 12 -26 31 -73 41 -103 43 -122 152 -235
257 -266 31 -9 86 -31 121 -48 59 -28 74 -31 160 -31 87 0 101 3 149 29 29 16
68 44 86 62 l34 33 105 -182 c122 -211 130 -230 151 -334 24 -126 28 -217 17
-410 -19 -310 -55 -534 -138 -853 -113 -436 -134 -566 -133 -838 0 -244 19
-370 86 -587 22 -70 26 -109 35 -310 13 -322 25 -377 92 -422 85 -57 489 -185
672 -213 39 -6 111 -18 160 -28 l90 -17 -65 -6 c-36 -4 -361 -7 -722 -8 l-658
-1 0 -23 0 -24 998 -7 c935 -6 1002 -8 1058 -26 144 -44 307 -64 534 -64 222
0 380 18 543 62 56 15 130 16 822 11 1368 -12 2048 -10 2330 6 157 9 449 15
738 15 l477 0 0 25 0 25 -665 2 -666 3 27 35 c76 101 166 352 203 570 62 364
47 706 -42 955 -84 233 -239 630 -291 748 -15 33 -46 128 -71 212 -44 153 -56
187 -80 215 -7 8 -23 67 -34 131 -11 64 -30 145 -41 180 -11 35 -20 67 -20 70
0 3 26 9 58 12 31 4 71 9 87 12 29 6 32 4 53 -46 l23 -52 27 25 c15 13 52 42
82 65 73 53 124 107 152 160 13 24 27 43 32 43 5 0 6 -25 4 -55 -3 -30 -3 -55
-2 -55 1 0 27 35 57 78 66 93 90 116 142 138 41 17 134 22 173 10 19 -6 22 -4
22 17 0 24 48 224 57 240 3 4 23 -11 46 -33 33 -34 97 -78 97 -68 0 2 -7 26
-16 53 -11 38 -13 76 -9 160 6 99 4 114 -14 149 -11 22 -20 40 -18 41 1 1 27
7 57 13 165 36 264 129 331 312 27 75 57 265 43 279 -2 3 -19 -9 -37 -26 -50
-48 -89 -63 -160 -63 -48 0 -76 6 -114 26 -65 32 -169 141 -198 208 -12 28
-30 70 -40 94 -10 23 -29 54 -41 67 l-23 25 41 40 c22 23 38 43 37 44 -2 2
-39 19 -81 39 -137 63 -220 132 -271 226 -15 27 -38 100 -52 161 -50 224 -143
341 -327 409 -20 8 -36 30 -67 98 -22 48 -51 109 -64 134 l-23 46 95 23 95 24
-85 17 c-141 29 -214 69 -365 203 -51 46 -121 98 -156 116 -41 21 -75 48 -96
76 -38 51 -132 131 -198 170 -55 33 -163 64 -218 64 -22 0 -65 -5 -96 -12 -46
-9 -79 -8 -181 5 -134 18 -189 20 -259 6z m125 -129 c17 -4 23 -8 15 -9 -20
-1 -104 -60 -165 -116 l-50 -46 76 41 c93 49 195 85 302 105 113 21 116 20 49
-29 -81 -60 -83 -68 -7 -30 35 18 107 42 158 54 111 26 159 23 79 -4 -74 -25
-239 -103 -247 -117 -5 -8 -2 -8 12 -1 10 6 55 20 100 31 91 23 195 27 275 10
l53 -12 -85 -23 c-185 -49 -454 -223 -719 -463 -100 -91 -103 -93 -96 -60 4
19 14 49 21 68 8 19 13 36 11 38 -8 7 -96 -104 -133 -167 l-37 -63 -24 46
c-27 54 -53 146 -54 197 l-1 35 -15 -45 c-8 -25 -15 -80 -16 -123 l-2 -79 -33
39 c-89 101 -143 202 -167 313 l-13 55 -12 -30 c-19 -47 -13 -151 15 -244 14
-46 24 -86 22 -88 -6 -6 -65 62 -102 117 -21 30 -34 46 -31 35 17 -48 45 -159
42 -162 -8 -8 -68 52 -91 91 -100 171 -11 410 188 505 63 30 196 66 206 55 3
-2 -12 -18 -32 -35 -20 -17 -51 -52 -69 -77 l-32 -47 51 47 c128 118 431 220
558 188z m786 -226 l54 -17 -65 -16 c-63 -15 -64 -16 -25 -18 84 -6 162 -26
228 -60 38 -19 67 -36 64 -39 -3 -3 -33 2 -68 11 -96 25 -250 17 -356 -20 -94
-31 -143 -60 -83 -47 19 4 89 7 155 6 124 0 197 -13 305 -56 119 -47 244 -150
281 -233 l18 -40 -130 -7 c-72 -3 -133 -9 -136 -11 -3 -3 12 -9 33 -12 159
-27 333 -87 394 -135 25 -19 25 -19 -25 -1 -28 11 -73 22 -100 26 l-50 7 71
-36 c120 -61 235 -190 279 -315 8 -22 10 -41 5 -41 -6 0 -10 4 -10 9 0 4 -27
31 -60 60 -33 29 -57 44 -53 35 5 -13 3 -15 -8 -9 -8 4 3 -7 23 -24 20 -17 82
-92 138 -165 129 -173 209 -241 328 -281 l67 -22 -50 -7 c-101 -14 -279 49
-410 146 -33 25 -31 22 13 -21 85 -81 174 -139 294 -192 115 -50 149 -75 199
-143 29 -39 39 -73 18 -60 -21 13 -163 21 -244 15 -88 -8 -87 -9 37 -39 134
-32 324 -136 398 -217 l25 -28 -25 7 c-49 12 -160 27 -177 24 -10 -2 39 -23
108 -46 129 -44 281 -69 347 -58 18 3 32 2 30 -3 -9 -22 -128 -117 -173 -137
-139 -64 -308 -80 -449 -44 -114 29 -170 63 -271 166 -132 134 -209 168 -460
205 -203 30 -311 56 -379 92 -77 39 -181 144 -223 222 -46 85 -41 45 6 -51 63
-128 164 -235 285 -301 66 -36 43 -36 -49 -1 -113 44 -218 138 -276 247 -27
50 -29 53 -23 21 9 -53 54 -160 85 -206 34 -50 82 -92 115 -100 29 -7 29 -9 4
-41 -32 -41 -41 -90 -25 -131 25 -59 20 -81 -35 -134 -27 -26 -50 -52 -50 -57
0 -11 75 -26 105 -22 40 6 75 32 95 71 11 22 30 48 41 59 16 15 20 27 15 45
-3 14 -9 36 -12 49 -4 15 1 32 14 47 l20 25 13 -30 c6 -16 14 -55 17 -86 5
-67 -10 -102 -74 -171 -73 -79 -49 -78 27 0 39 40 80 93 90 118 11 24 21 44
23 44 11 0 -19 -92 -43 -135 -140 -252 -174 -294 -244 -302 -41 -5 -49 -2 -76
24 -32 32 -51 86 -51 146 0 20 -4 37 -8 37 -14 0 -29 -64 -57 -240 -50 -305
-96 -378 -316 -504 -54 -31 -100 -56 -103 -56 -3 0 9 22 26 50 17 27 44 96 61
152 24 85 31 129 36 249 6 144 6 146 40 200 52 81 94 160 89 165 -6 5 -109
-128 -127 -164 -26 -49 -39 -109 -28 -128 31 -55 -6 -283 -65 -397 -29 -58
-200 -240 -275 -293 -213 -153 -549 -124 -696 58 -24 29 -31 51 -36 100 l-6
63 -75 42 c-41 23 -89 55 -105 71 -31 29 -55 89 -55 133 1 22 5 19 46 -26 l46
-50 -6 38 -5 39 42 -9 c63 -12 108 -8 176 17 l61 21 70 -22 c68 -22 71 -22
123 -6 65 21 102 21 153 3 22 -7 73 -19 114 -25 41 -7 89 -16 106 -22 29 -9
35 -6 67 26 19 19 42 35 51 35 21 0 46 -62 46 -113 0 -22 2 -38 5 -35 15 14
55 145 55 177 0 86 -51 204 -139 326 -49 69 -332 376 -340 369 -2 -2 8 -33 23
-69 31 -79 35 -152 8 -185 -18 -22 -21 -23 -94 -12 -50 8 -86 8 -109 2 -44
-13 -118 -13 -155 0 -40 14 -84 83 -84 132 0 23 16 74 39 125 37 84 52 138 66
248 4 28 19 79 33 115 34 83 33 142 -3 216 -45 91 -123 126 -233 104 -96 -20
-124 -45 -187 -169 -35 -71 -61 -112 -75 -116 -32 -10 -23 -27 12 -23 29 3 36
10 64 68 37 77 98 136 149 146 76 14 151 -37 189 -129 l16 -39 -35 31 c-97 85
-242 55 -316 -65 -20 -33 -24 -35 -67 -32 l-46 3 -3 175 c-3 263 35 537 96
686 89 216 207 331 378 364 53 11 81 10 181 -5 118 -18 119 -18 183 3 139 46
237 63 363 63 174 0 288 -26 427 -97 50 -25 51 -25 114 -9 35 8 90 19 122 24
l58 9 -75 0 c-41 1 -97 -3 -125 -8 -27 -4 -51 -7 -53 -5 -2 1 19 15 45 30 26
16 72 44 101 63 29 19 78 42 110 52 l57 19 -55 -6 c-30 -3 -93 -17 -140 -30
-133 -38 -233 -63 -238 -58 -7 6 77 93 122 126 52 39 32 37 -103 -11 -62 -22
-117 -40 -122 -40 -11 0 64 68 110 100 18 13 65 36 105 51 93 37 54 37 -65 0
-80 -24 -123 -41 -238 -89 -10 -4 -13 -1 -8 11 9 25 -9 21 -85 -16 l-67 -33
32 59 c97 178 291 333 477 381 75 20 185 19 251 0z m-1787 -218 c-11 -63 22
-174 73 -243 13 -18 21 -33 18 -33 -21 0 -88 45 -114 77 -28 34 -31 35 -31 15
0 -57 52 -128 112 -153 39 -16 35 -25 -16 -44 -94 -36 -193 18 -235 127 l-20
53 -2 -35 c-7 -93 21 -155 88 -199 40 -27 43 -31 22 -31 -13 0 -37 -9 -53 -19
l-29 -19 49 -24 c58 -27 62 -46 14 -63 -20 -7 -63 -28 -95 -46 l-60 -34 50 -3
c84 -4 84 -10 6 -53 -40 -22 -94 -53 -119 -71 -51 -34 -152 -127 -152 -141 0
-4 21 6 47 24 86 60 213 96 132 37 -81 -58 -194 -165 -256 -244 -103 -132
-187 -243 -210 -282 -17 -28 -23 -32 -23 -17 1 32 56 219 82 277 31 68 203
283 297 371 39 37 69 67 65 67 -11 0 -134 -94 -134 -102 0 -4 -7 -8 -15 -8 -9
0 -28 -12 -42 -27 l-26 -28 6 83 c12 161 84 253 226 292 38 10 42 14 36 33 -3
12 -9 54 -12 93 -13 166 82 303 243 350 31 9 58 24 64 35 16 29 22 23 14 -15z
m-3600 -904 c-152 -53 -280 -227 -363 -497 -29 -91 -31 -95 -26 -45 4 30 4 52
0 49 -9 -10 -35 -158 -35 -205 0 -31 -4 -43 -11 -38 -17 10 -4 192 20 289 32
123 103 257 184 342 84 89 148 123 226 123 l56 -1 -51 -17z m326 -49 c25 -11
54 -28 65 -37 18 -15 17 -15 -19 0 -22 9 -67 16 -103 15 -194 -1 -348 -185
-415 -496 -20 -95 -17 -347 6 -415 28 -83 53 -127 99 -178 51 -55 19 -41 -39
17 -85 86 -131 223 -143 426 -7 108 -7 109 -15 52 -5 -31 -7 -118 -4 -194 4
-152 -6 -151 -38 7 -42 208 31 495 170 672 55 69 98 103 173 134 49 21 71 24
138 21 53 -2 95 -10 125 -24z m2911 -187 c-28 -64 -94 -159 -160 -231 -31 -33
-47 -53 -36 -44 11 9 77 61 147 117 70 56 130 102 132 102 10 0 -26 -86 -54
-131 -17 -25 -56 -71 -88 -101 -88 -85 -223 -228 -262 -278 -28 -36 -15 -28
69 47 96 83 286 211 298 199 15 -14 -208 -325 -293 -409 -91 -89 -173 -110
-288 -73 l-59 19 35 18 c48 24 101 99 128 178 46 138 117 269 197 368 24 29
41 53 37 53 -13 0 -109 -88 -140 -129 -38 -49 -43 -38 -13 28 27 61 148 176
266 254 54 36 99 63 101 62 1 -1 -6 -23 -17 -49z m-3090 -84 c-52 -52 -100
-122 -106 -154 -3 -11 -12 -32 -22 -47 -9 -14 -30 -62 -45 -106 -24 -68 -28
-73 -23 -35 9 67 52 189 87 242 29 47 131 148 148 148 5 0 -13 -22 -39 -48z
m94 2 c-49 -25 -133 -92 -157 -124 -12 -17 -26 -30 -31 -30 -14 0 52 85 86
111 47 36 90 58 112 59 16 0 13 -4 -10 -16z m-845 -44 c13 -8 13 -10 -2 -10
-11 0 -24 -15 -34 -37 -12 -27 -18 -33 -21 -21 -4 18 23 78 35 78 4 0 14 -5
22 -10z m53 -38 c-6 -16 -5 -16 13 -1 14 12 25 14 42 8 26 -10 26 -12 10 -56
-16 -44 -28 -42 -18 2 7 29 5 35 -9 35 -21 0 -36 -11 -44 -32 -10 -28 -30 -22
-23 6 3 14 2 28 -4 31 -5 3 -10 2 -10 -2 0 -5 -7 -18 -15 -29 -14 -18 -14 -18
-15 9 0 21 6 30 20 34 11 3 20 12 20 20 0 11 4 11 20 3 13 -7 17 -16 13 -28z
m1337 -42 c24 -24 25 -38 5 -64 -14 -19 -16 -19 -75 -1 -34 10 -64 23 -67 28
-3 6 6 21 21 34 34 29 88 31 116 3z m-1313 -12 c-3 -8 -6 -5 -6 6 -1 11 2 17
5 13 3 -3 4 -12 1 -19z m2274 5 l54 -17 -55 -6 c-66 -8 -115 -37 -187 -111
-90 -93 -157 -234 -194 -411 -32 -147 -32 -386 -1 -472 12 -33 20 -61 19 -62
-11 -11 -74 137 -97 229 -28 108 -29 110 -31 62 -1 -27 -2 -75 -1 -105 l1 -55
-14 44 c-46 141 -16 418 64 596 82 181 234 323 347 325 22 0 65 -8 95 -17z
m-791 -28 c40 -21 45 -45 16 -95 -22 -40 -25 -41 -35 -22 -6 11 -33 28 -61 37
-27 9 -50 23 -50 30 0 19 58 65 81 65 11 0 33 -7 49 -15z m198 -65 c41 -25 41
-43 -4 -71 -50 -30 -149 -160 -169 -219 -20 -60 -28 -66 -65 -50 -53 22 -54
86 -1 138 21 20 53 66 71 102 58 117 99 142 168 100z m840 -9 c20 -10 46 -28
56 -40 l19 -21 -48 21 c-40 18 -58 20 -104 14 -31 -4 -66 -8 -78 -9 -12 0 -20
-3 -17 -5 2 -2 -18 -19 -45 -38 -57 -40 -93 -88 -149 -198 -58 -112 -74 -178
-79 -334 -8 -203 20 -331 91 -410 l21 -25 -32 23 c-58 39 -143 242 -143 341 0
20 -4 30 -8 23 -8 -13 -6 -147 3 -203 8 -52 -11 -15 -30 56 -27 105 -16 294
26 424 49 149 155 305 246 361 82 51 195 59 271 20z m-1306 7 c32 -9 43 -19
55 -50 14 -34 21 -40 77 -56 63 -20 76 -19 76 1 0 8 -15 11 -42 9 -57 -4 -92
16 -96 52 -3 27 -2 28 25 22 108 -26 115 -31 126 -73 8 -33 -48 -78 -113 -92
-67 -15 -89 -14 -124 4 -15 8 -29 15 -30 15 0 0 -2 -19 -3 -43 -1 -23 -9 -64
-18 -90 -13 -38 -14 -52 -5 -63 26 -30 80 -54 170 -73 162 -36 270 -102 323
-200 42 -76 65 -219 62 -371 -2 -79 -9 -142 -19 -170 -8 -24 -14 -46 -12 -48
8 -7 88 99 109 145 l23 50 26 -21 c14 -11 40 -29 59 -39 l33 -19 -24 -18 c-29
-22 -113 -45 -135 -36 -10 3 -15 -1 -15 -11 0 -9 3 -13 7 -10 18 19 35 -50 58
-239 56 -463 89 -608 225 -989 175 -489 194 -565 188 -738 -3 -100 -6 -117
-32 -163 -24 -45 -82 -102 -171 -168 -19 -15 -18 -15 22 -16 75 0 195 20 333
57 74 19 138 38 142 42 5 4 13 34 19 66 34 190 198 368 407 445 199 73 384 56
508 -45 85 -70 172 -92 235 -59 29 15 31 14 62 -13 18 -15 51 -37 75 -47 23
-10 42 -25 42 -33 0 -24 29 -292 46 -421 l16 -123 -27 -37 c-15 -20 -47 -68
-72 -107 -26 -38 -55 -83 -65 -98 -28 -41 -17 -42 28 -3 54 46 75 51 121 27
64 -33 117 -94 137 -158 10 -32 43 -125 73 -206 66 -175 69 -161 -53 -277
-149 -140 -380 -236 -657 -270 -137 -17 -420 -8 -569 19 -110 19 -328 85 -390
117 l-29 15 83 51 c144 87 231 153 372 280 28 26 7 22 -34 -5 -48 -32 -188
-90 -290 -121 -89 -26 -175 -44 -350 -71 -58 -9 -148 -28 -200 -43 -100 -26
-199 -33 -284 -19 l-50 9 85 32 c70 26 206 95 189 96 -3 0 -40 -7 -83 -15 -95
-18 -267 -18 -322 0 l-40 13 36 1 c51 1 201 46 257 77 26 14 38 22 27 18 -38
-14 -236 -16 -298 -4 -92 18 -163 55 -199 104 -60 81 -118 229 -149 384 -26
130 -24 137 17 57 43 -85 87 -145 148 -205 45 -43 60 -45 32 -5 -21 31 -84
208 -101 282 -21 95 -53 289 -61 368 -4 36 -11 62 -15 58 -5 -5 -10 -55 -11
-113 l-3 -105 -23 65 c-36 106 -52 212 -51 343 l0 122 25 -69 c13 -38 25 -70
26 -72 2 -1 4 95 5 214 1 228 15 371 58 597 40 213 45 283 51 665 2 201 7 384
10 408 l5 42 59 0 c32 0 71 5 87 11 l28 11 -25 10 c-70 29 -99 50 -173 129
-96 100 -182 235 -298 464 l-81 160 17 48 c9 27 37 83 62 125 25 43 56 99 70
126 48 95 89 113 185 84z m-412 -18 c13 -8 13 -10 -2 -10 -9 0 -28 -14 -42
-31 -21 -25 -26 -41 -26 -87 -1 -52 -2 -55 -15 -38 -30 40 -11 140 32 165 23
13 34 13 53 1z m94 -46 c70 -18 79 -24 70 -49 -6 -15 -15 -16 -60 -11 -29 3
-60 9 -70 13 -12 4 -15 3 -10 -5 4 -7 19 -12 34 -12 23 -1 24 -2 10 -11 -17
-9 -58 -6 -78 6 -12 7 -10 55 3 73 12 16 26 15 101 -4z m903 -27 c9 -7 1 -23
-32 -63 -27 -33 -56 -86 -76 -139 -31 -82 -33 -85 -63 -85 -18 0 -40 6 -50 13
-16 12 -16 18 -6 57 18 66 56 136 101 185 49 53 87 63 126 32z m2401 -20 c21
-59 103 -77 148 -32 30 30 34 31 34 7 0 -10 -13 -25 -29 -35 -66 -39 -231 -30
-231 13 0 18 45 80 59 80 4 0 12 -15 19 -33z m-1691 -18 l28 -11 -47 -12
c-156 -41 -268 -258 -285 -556 -8 -138 -20 -117 -32 55 l-7 110 -9 -85 c-5
-47 -11 -72 -13 -56 -6 47 18 223 39 292 32 104 135 242 199 267 26 10 97 7
127 -4z m1532 -55 c-15 -18 -70 -43 -81 -37 -5 2 -8 12 -8 22 0 13 6 17 23 14
12 -2 33 0 47 6 34 13 34 13 19 -5z m-1380 -62 c14 -10 27 -25 29 -33 4 -11 2
-12 -9 -1 -24 22 -94 15 -129 -14 -37 -32 -92 -137 -111 -214 -17 -68 -17
-227 0 -258 7 -13 11 -26 8 -28 -8 -9 -37 65 -48 119 -6 35 -6 76 0 113 5 33
7 61 6 63 -4 3 -24 -67 -44 -149 -9 -40 -10 -35 -5 40 5 98 22 169 55 237 28
59 84 122 124 140 37 16 91 10 124 -15z m1451 13 c10 -12 6 -22 -26 -57 -21
-24 -43 -47 -49 -53 -23 -19 -54 -71 -60 -101 -6 -26 -4 -24 23 16 16 25 41
57 54 71 12 14 37 41 53 60 27 30 36 34 80 35 28 1 70 4 95 8 l45 8 -37 -36
c-24 -23 -57 -41 -95 -52 -35 -10 -71 -28 -90 -47 -46 -43 -43 -68 3 -27 20
17 47 36 61 41 32 12 103 12 103 -1 0 -5 -6 -10 -13 -10 -7 0 -22 -7 -33 -15
-17 -13 -15 -13 21 -3 52 13 83 30 118 63 23 22 27 23 27 8 0 -45 -35 -144
-80 -227 -26 -50 -65 -132 -85 -183 -20 -50 -50 -113 -67 -140 l-31 -48 -14
40 c-9 22 -18 78 -22 125 -7 80 -8 83 -20 55 -30 -72 -43 -150 -39 -240 4 -81
3 -87 -9 -58 -7 18 -22 85 -34 150 -11 65 -32 161 -45 213 -14 52 -28 133 -30
180 -7 105 8 155 56 188 41 27 73 31 43 5 -21 -19 -37 -86 -19 -80 6 2 13 13
16 24 5 20 69 101 81 102 4 1 12 -6 19 -14z m-2760 -45 c0 -44 -8 -48 -57 -29
-57 22 -58 57 0 62 23 2 45 4 50 5 4 1 7 -16 7 -38z m5160 -201 c76 -76 186
-136 318 -175 109 -31 117 -30 59 8 -31 20 -75 67 -123 132 -42 56 -82 109
-90 119 -48 59 126 -39 222 -126 105 -96 162 -136 266 -190 116 -60 150 -87
181 -146 37 -67 34 -74 -15 -29 -36 33 -58 46 -58 34 0 -2 9 -23 20 -47 13
-30 19 -65 19 -109 l0 -65 -18 57 c-32 98 -78 157 -158 198 -54 27 -155 42
-229 32 l-59 -8 49 -12 c117 -31 184 -86 237 -196 33 -68 39 -89 39 -145 -1
-44 -7 -77 -19 -101 l-19 -34 -1 64 c-1 87 -38 160 -105 211 -53 40 -105 59
-235 82 -108 20 -183 58 -248 123 -78 80 -112 158 -133 307 -10 69 -23 135
-29 148 -7 13 5 4 26 -21 20 -25 67 -74 103 -111z m-3857 54 c34 -32 21 -43
-30 -26 -27 9 -55 18 -63 20 -12 4 -11 7 5 19 23 17 60 11 88 -13z m1003 -77
c-116 -186 -284 -275 -472 -251 -68 9 -65 10 69 50 48 14 87 30 87 35 0 6 -24
10 -52 11 -29 0 -75 4 -103 8 l-50 7 30 16 c17 9 39 25 49 37 17 18 30 21 110
21 145 0 240 31 326 108 25 22 47 38 49 36 2 -2 -17 -37 -43 -78z m159 37 c-8
-62 -57 -209 -85 -259 -12 -21 -34 -59 -48 -84 -24 -43 -21 -41 61 39 l86 84
-26 -69 c-59 -161 -36 -316 70 -477 65 -99 52 -101 -19 -3 -24 34 -55 72 -69
85 -41 38 -68 100 -74 171 l-6 65 -45 -59 -45 -60 -5 35 -5 34 -27 -35 c-25
-32 -27 -33 -22 -10 16 68 48 152 74 194 32 49 26 58 -18 26 -28 -20 -154 -64
-219 -76 l-37 -7 25 30 c13 17 62 59 109 94 110 84 275 242 302 290 12 22 24
39 26 39 2 0 1 -21 -3 -47z m-1200 -23 c39 -11 80 -20 93 -20 33 0 37 -24 12
-65 -24 -38 -40 -42 -20 -5 19 36 3 35 -19 -1 -16 -26 -21 -29 -26 -17 -4 9
-2 25 4 37 13 24 14 54 2 47 -5 -3 -16 -21 -25 -41 -9 -19 -21 -35 -26 -35
-15 0 -12 33 6 58 18 26 15 35 -9 26 -9 -3 -21 -21 -28 -41 -13 -40 -22 -37
-21 7 1 44 -16 47 -33 6 -20 -48 -29 -45 -21 6 11 68 8 67 111 38z m201 -46
c21 -6 21 -7 -14 -54 -34 -45 -38 -48 -54 -34 -13 13 -15 21 -7 42 19 50 32
58 75 46z m44 -94 c0 -16 -4 -30 -9 -30 -12 0 -24 37 -16 50 12 20 25 10 25
-20z m1511 -146 c12 -15 12 -17 -1 -13 -23 8 -50 70 -49 114 0 39 1 38 18 -22
10 -34 24 -70 32 -79z m1998 72 c47 -98 107 -171 232 -286 214 -197 248 -244
257 -356 5 -67 -6 -84 -26 -39 -13 28 -93 118 -99 111 -3 -2 3 -19 13 -38 12
-22 18 -56 18 -103 0 -58 -4 -80 -28 -125 -28 -53 -77 -122 -83 -116 -2 2 7
25 19 52 16 36 22 69 22 124 1 103 -11 120 -106 150 -40 12 -95 33 -121 47
-65 32 -155 125 -195 200 -29 55 -72 192 -72 230 0 8 24 -21 53 -64 65 -96
164 -181 289 -247 l93 -50 -73 80 c-88 95 -142 182 -175 284 -25 76 -58 210
-52 210 2 0 18 -29 34 -64z m1181 34 c-14 -4 -41 -8 -60 -8 l-35 1 40 7 c57
10 87 10 55 0z m-2609 -97 c47 -50 99 -119 83 -111 -68 32 -110 49 -143 58
l-38 10 16 45 c9 25 21 45 26 45 6 0 31 -21 56 -47z m-531 -74 c13 -9 12 -10
-3 -5 -11 4 -16 2 -12 -5 4 -6 14 -8 21 -5 12 5 99 -11 113 -21 2 -1 -12 -26
-30 -55 -18 -29 -40 -80 -49 -113 -16 -57 -17 -58 -30 -36 -7 15 -10 44 -7 75
l4 50 -23 -29 c-13 -17 -29 -56 -36 -88 l-12 -58 -18 33 c-11 20 -15 45 -12
63 5 29 4 29 -11 10 -9 -11 -21 -39 -28 -62 -15 -57 -27 -44 -27 30 l-1 62
-27 -53 c-30 -58 -42 -58 -43 -3 0 35 -1 35 -11 11 l-11 -25 -5 24 c-2 14 5
36 19 55 l22 31 -26 -23 c-14 -13 -35 -47 -48 -75 -27 -64 -37 -46 -14 24 29
85 89 140 197 179 61 22 87 24 108 9z m528 -45 c48 -26 92 -50 98 -55 6 -5 13
-7 15 -4 3 2 18 -7 34 -21 29 -24 29 -25 3 -8 -16 9 -28 12 -28 6 0 -6 5 -14
10 -17 12 -8 35 -51 45 -85 5 -20 -1 -17 -33 20 l-40 45 11 -51 c6 -28 7 -59
3 -70 -7 -17 -9 -16 -21 11 -7 17 -30 48 -50 70 -22 24 -32 31 -25 17 6 -13
10 -37 8 -55 -3 -30 -5 -28 -27 31 -13 34 -25 61 -26 60 -2 -2 0 -21 4 -44 4
-22 5 -61 1 -85 l-6 -44 -12 37 c-7 20 -16 38 -20 40 -4 2 -19 17 -33 34 l-25
31 3 -56 c2 -51 2 -53 -8 -22 -5 18 -22 51 -37 74 l-27 41 -3 -72 c-2 -40 -6
-72 -11 -72 -13 0 -53 61 -92 144 -37 78 -50 96 -29 40 16 -42 29 -104 21
-104 -9 0 -61 78 -61 91 0 5 -4 9 -9 9 -10 0 -31 -76 -31 -117 l-1 -28 -18 35
c-31 61 -33 84 -8 121 13 19 31 33 40 33 9 -1 17 3 17 8 0 6 9 8 20 5 13 -3
20 0 20 9 0 13 18 19 49 14 8 -1 17 3 20 9 4 6 24 13 45 16 21 2 42 7 45 11
14 13 88 -9 169 -52z m876 -353 c9 -68 16 -163 16 -212 0 -84 -1 -89 -22 -93
-50 -11 -244 -57 -263 -63 -14 -4 -9 7 21 43 112 136 171 252 201 397 21 104
25 97 47 -72z m442 26 c46 -59 134 -114 231 -146 79 -26 85 -30 59 -36 -15 -4
-62 -5 -104 -1 -130 11 -230 73 -287 178 l-28 53 36 -40 c19 -22 38 -37 41
-34 3 3 -3 32 -14 64 -30 86 -25 111 8 49 16 -28 42 -67 58 -87z m-43 -399
c58 -78 102 -216 109 -342 l3 -59 -115 -22 c-136 -27 -329 -83 -432 -126 -81
-34 -75 -34 -233 9 -61 17 -147 36 -193 42 -45 7 -82 14 -82 17 0 3 97 51 270
132 l25 12 -25 -6 c-14 -3 -64 -12 -111 -20 -48 -8 -139 -33 -202 -55 -64 -22
-162 -47 -216 -55 -55 -9 -107 -18 -116 -21 -97 -38 243 179 423 269 224 112
538 214 762 246 99 15 107 14 133 -21z m248 -733 c42 -121 94 -265 116 -320
54 -133 194 -519 227 -623 45 -145 60 -258 60 -472 -1 -275 -30 -491 -94 -681
-28 -86 -102 -243 -117 -252 -5 -3 -7 56 -5 131 l2 137 -21 -55 c-40 -107
-101 -245 -125 -287 l-25 -43 -240 0 -241 0 79 58 c146 109 247 248 329 452
40 99 108 374 102 409 -2 8 -16 -18 -32 -59 -46 -120 -170 -367 -234 -465
-155 -239 -377 -365 -669 -379 -57 -3 -103 -4 -103 -1 0 2 20 13 45 24 52 23
105 58 105 70 0 4 -24 6 -54 3 -53 -4 -143 7 -220 29 l-38 11 103 34 c120 40
226 95 307 158 64 49 178 163 171 170 -4 4 -88 -16 -119 -28 -10 -4 5 35 40
106 48 99 140 329 140 351 0 4 -36 -45 -79 -110 -156 -233 -292 -365 -468
-452 -66 -33 -213 -91 -229 -91 -3 0 18 26 46 58 73 81 256 367 335 522 16 32
30 48 37 44 8 -5 9 -2 5 9 -3 10 -2 17 3 17 6 0 10 5 10 11 0 6 16 38 35 70
19 33 35 61 35 62 0 1 -56 -52 -124 -118 -102 -98 -134 -137 -178 -212 -69
-120 -150 -229 -243 -328 -73 -78 -76 -79 -69 -45 4 19 7 107 7 195 0 157 -12
255 -38 304 l-13 25 -7 -35 c-8 -42 -29 -105 -46 -142 -12 -27 -14 -24 -36 75
-31 139 -88 328 -122 402 -27 58 -186 306 -197 306 -3 0 4 -15 16 -34 23 -38
92 -227 85 -234 -2 -3 -9 7 -14 20 -32 84 -121 244 -181 323 -69 92 -237 260
-291 292 -41 24 -36 31 19 26 134 -13 406 -114 527 -196 58 -39 -45 61 -124
120 -122 92 -340 193 -418 193 -38 0 -23 21 38 53 50 26 60 28 124 22 234 -22
541 -112 755 -222 80 -41 83 -42 50 -13 -58 51 -142 115 -189 144 -93 59 -239
123 -296 131 -11 1 -40 8 -65 15 -41 11 -43 13 -22 21 61 23 204 32 325 20
105 -11 310 -45 327 -56 3 -1 30 -10 60 -19 54 -15 54 -15 31 3 -46 35 -209
111 -293 135 -223 65 -390 55 -680 -38 -27 -8 -48 -11 -48 -6 0 15 153 172
209 213 66 49 196 110 276 131 208 53 490 44 750 -23 202 -52 429 -158 615
-289 63 -44 64 -44 35 -11 -17 19 -51 59 -75 89 -78 95 -150 154 -270 218 -70
38 -73 41 -50 50 129 49 402 102 504 98 l40 -1 77 -220z m-2143 195 c54 -25
72 -64 72 -160 0 -62 2 -70 19 -70 54 0 51 -10 -32 -114 -45 -56 -94 -124
-110 -150 -19 -33 -33 -46 -45 -44 -14 3 -17 14 -16 55 1 40 10 67 40 120 45
80 66 123 62 134 -2 4 -50 -37 -106 -93 -85 -81 -103 -104 -98 -122 11 -39 17
-250 9 -301 -8 -48 -10 -50 -47 -60 -34 -8 -41 -7 -57 13 -10 13 -25 55 -34
95 -15 70 -45 328 -39 336 2 2 18 7 36 11 l33 8 -38 1 -38 1 59 78 c32 42 84
113 115 157 30 45 64 88 74 97 35 31 83 34 141 8z m-259 -35 c2 -2 -19 -35
-46 -72 -69 -95 -166 -273 -165 -303 0 -14 14 -101 31 -195 16 -93 26 -174 21
-179 -5 -4 -28 -11 -53 -13 -51 -6 -54 -2 -88 94 -22 66 -63 288 -56 308 3 7
16 15 29 18 20 4 20 4 -4 6 -36 1 -35 9 6 63 19 25 64 90 100 145 84 130 105
147 171 138 27 -3 51 -8 54 -10z m-296 -64 l27 -6 -23 -35 c-13 -19 -41 -66
-62 -105 -21 -38 -50 -88 -63 -110 -30 -47 -31 -72 -9 -178 18 -84 22 -193 8
-215 -13 -21 -84 -27 -99 -9 -34 40 -84 392 -54 373 7 -4 10 -2 6 7 -7 18 129
240 163 267 26 20 54 23 106 11z m-281 -67 l36 -6 -33 -47 c-18 -25 -43 -66
-55 -91 -12 -25 -29 -53 -38 -62 -14 -16 -13 -23 1 -69 19 -58 22 -131 7 -160
-13 -23 -85 -27 -93 -5 -3 7 -13 63 -23 123 l-17 110 48 79 c81 132 92 140
167 128z m712 -810 c55 -104 131 -224 142 -224 4 0 3 8 -1 18 -12 31 -36 173
-33 194 3 18 8 16 46 -23 224 -229 461 -846 488 -1269 l6 -95 -55 87 c-31 48
-73 113 -94 145 -41 60 -100 162 -173 298 -24 44 -54 97 -67 117 -12 21 -23
40 -23 43 0 7 -211 378 -222 390 -5 6 0 -15 12 -45 12 -30 30 -77 40 -105 18
-50 126 -318 214 -530 l45 -110 -32 40 c-18 21 -42 51 -54 65 l-22 25 6 -112
c3 -62 4 -113 1 -113 -3 0 -28 35 -56 78 -55 84 -125 221 -165 322 -33 85
-113 357 -143 490 -23 101 -50 338 -42 376 3 17 13 21 120 43 3 0 31 -46 62
-105z"/>
<path d="M6670 8620 c-8 -5 -10 -10 -5 -10 6 0 17 5 25 10 8 5 11 10 5 10 -5
0 -17 -5 -25 -10z"/>
<path d="M6605 8340 c9 -15 73 -29 223 -50 78 -11 153 -22 169 -24 15 -3 1 3
-32 14 -111 38 -373 81 -360 60z"/>
<path d="M6645 8260 c11 -38 17 -41 86 -44 35 -2 87 -6 114 -10 l50 -6 -45 16
c-25 8 -76 21 -114 30 -38 8 -76 20 -84 27 -13 10 -14 8 -7 -13z"/>
<path d="M5260 8243 c-136 -24 -276 -79 -315 -124 -19 -21 -17 -21 28 5 62 36
161 73 272 102 79 20 87 30 15 17z"/>
<path d="M5981 8206 c116 -36 218 -81 282 -124 67 -44 75 -47 32 -8 -80 72
-188 122 -328 152 -106 22 -102 16 14 -20z"/>
<path d="M5119 8100 c-87 -15 -183 -71 -211 -123 -7 -14 3 -9 32 16 65 55 156
83 350 106 l75 8 -100 0 c-55 1 -121 -3 -146 -7z"/>
<path d="M5817 8069 c167 -21 350 -97 439 -181 64 -60 58 -37 -10 39 -85 95
-244 154 -405 152 l-86 -2 62 -8z"/>
<path d="M6681 8007 c30 -27 92 -54 301 -130 223 -82 339 -154 502 -315 95
-93 102 -89 30 20 -156 234 -354 355 -644 394 -69 9 -145 25 -170 35 l-45 19
26 -23z"/>
<path d="M5049 7981 c-42 -13 -161 -75 -150 -79 5 -2 22 3 38 11 56 29 157 57
212 58 l56 2 -45 8 c-56 9 -78 9 -111 0z"/>
<path d="M5925 7931 c102 -18 232 -66 282 -103 l28 -21 -20 21 c-65 68 -215
123 -332 121 -56 -1 -55 -1 42 -18z"/>
<path d="M4973 7844 c-45 -16 -96 -62 -120 -108 -12 -23 -5 -19 35 21 55 55
125 82 218 84 43 1 45 2 19 9 -48 12 -107 10 -152 -6z"/>
<path d="M5820 7837 l-45 -11 50 -6 c52 -6 50 -9 -23 -30 -73 -22 -71 -36 5
-43 121 -10 348 -101 424 -170 15 -13 41 -43 58 -67 37 -52 38 -45 6 50 -33
98 -65 149 -126 204 -84 76 -221 104 -349 73z"/>
<path d="M4963 7798 c-17 -4 -46 -23 -64 -41 -52 -51 -72 -108 -75 -217 l-4
-95 14 52 c17 68 36 95 92 134 65 44 205 99 256 99 40 1 42 2 24 15 -54 41
-183 69 -243 53z"/>
<path d="M5745 7643 c-66 -16 -132 -116 -141 -214 -3 -42 -2 -49 6 -31 7 18
15 22 31 17 13 -4 27 0 40 11 11 10 20 14 19 9 -2 -6 -2 -21 -1 -35 2 -22 4
-20 15 13 14 39 42 77 57 77 5 0 1 -15 -9 -32 -48 -87 -31 -85 28 3 56 81 75
92 154 87 83 -5 132 -37 188 -122 22 -35 54 -71 69 -80 39 -23 119 -31 142
-14 15 11 12 13 -28 13 -54 0 -71 15 -154 136 -66 96 -124 139 -217 158 -57
11 -161 13 -199 4z"/>
<path d="M4886 7463 c-6 -14 -5 -15 5 -6 7 7 10 15 7 18 -3 3 -9 -2 -12 -12z"/>
<path d="M5381 7464 c0 -11 3 -14 6 -6 3 7 2 16 -1 19 -3 4 -6 -2 -5 -13z"/>
<path d="M5824 7434 c-39 -26 -65 -53 -85 -87 -9 -16 -8 -18 11 -12 11 4 27 2
34 -4 11 -9 15 -6 20 13 3 14 20 34 36 46 l30 21 0 -26 c0 -37 16 -62 50 -80
40 -21 83 -19 114 6 28 22 46 18 46 -11 0 -34 -61 -44 -209 -34 -72 5 -131 6
-131 2 0 -3 13 -17 29 -31 28 -24 49 -30 186 -57 33 -7 88 -27 122 -46 34 -19
65 -34 68 -34 12 0 -50 46 -79 58 l-29 13 38 39 c42 43 39 44 104 -14 l35 -31
-18 29 c-17 27 -17 29 -1 22 10 -3 52 -18 94 -32 41 -14 82 -31 91 -37 8 -6 7
-2 -4 10 -10 12 -59 43 -108 68 -49 26 -87 49 -85 52 3 2 32 -1 64 -7 54 -11
64 -10 111 10 28 12 57 28 63 36 10 12 6 12 -22 0 -36 -15 -92 -21 -173 -18
-46 2 -52 6 -110 66 -71 74 -116 96 -196 96 -45 0 -66 -6 -96 -26z"/>
<path d="M5715 7239 c29 -47 88 -116 112 -131 16 -9 59 -24 96 -32 77 -18 115
-36 172 -80 l40 -31 -35 41 c-66 77 -92 93 -240 149 -25 9 -69 35 -99 57 -30
23 -50 35 -46 27z"/>
<path d="M6111 7182 c-14 -26 -7 -42 10 -25 6 6 9 19 7 29 -3 17 -5 17 -17 -4z"/>
<path d="M5229 6176 c8 -10 33 -27 55 -39 36 -19 56 -22 171 -22 99 1 144 5
190 20 l60 19 -35 7 c-19 3 -118 10 -220 13 -102 4 -196 10 -210 13 -23 6 -24
5 -11 -11z"/>
<path d="M1060 7689 c-7 -11 -10 -23 -7 -25 2 -2 9 7 15 21 14 30 7 33 -8 4z"/>
<path d="M1032 7625 c-17 -37 -14 -45 4 -12 9 16 14 31 11 33 -2 2 -9 -7 -15
-21z"/>
<path d="M1001 7549 c-6 -18 -9 -34 -7 -36 2 -2 9 10 15 28 6 18 9 34 7 36 -2
2 -9 -10 -15 -28z"/>
<path d="M3008 7243 c-12 -21 -22 -41 -20 -45 1 -5 -2 -8 -8 -8 -5 0 -10 -5
-10 -12 0 -18 16 1 44 55 30 56 27 62 -6 10z"/>
<path d="M2331 3988 c-1 -10 69 -208 101 -285 l29 -72 62 -21 c84 -28 164 -35
239 -21 67 13 165 57 210 94 l27 22 -132 0 c-111 1 -142 5 -197 24 -116 40
-258 147 -322 241 -9 14 -17 22 -17 18z"/>
<path d="M4590 3828 c-47 -96 -158 -210 -251 -255 -189 -93 -417 -89 -600 9
-75 39 -165 112 -206 166 -41 54 -41 48 -2 -31 101 -200 236 -314 414 -352 90
-19 148 -19 242 1 217 45 381 205 428 419 26 114 16 130 -25 43z"/>
<path d="M2557 7253 c-4 -3 -7 -11 -7 -17 0 -6 5 -5 12 2 6 6 9 14 7 17 -3 3
-9 2 -12 -2z"/>
<path d="M3189 7233 c-13 -16 -12 -17 4 -4 9 7 17 15 17 17 0 8 -8 3 -21 -13z"/>
<path d="M3021 6924 c0 -11 3 -14 6 -6 3 7 2 16 -1 19 -3 4 -6 -2 -5 -13z"/>
<path d="M3339 7123 c-13 -16 -12 -17 4 -4 9 7 17 15 17 17 0 8 -8 3 -21 -13z"/>
<path d="M3271 7003 c-1 -6 -4 -20 -7 -30 -5 -17 -5 -17 6 0 6 10 9 23 6 30
-3 9 -5 9 -5 0z"/>
<path d="M5985 5079 c-33 -3 -48 -6 -33 -7 101 -7 430 -130 596 -224 197 -112
397 -280 492 -411 18 -26 35 -45 37 -43 10 10 -64 183 -107 249 -71 108 -152
183 -268 249 -253 145 -498 208 -717 187z"/>
<path d="M4858 4643 c7 -3 16 -2 19 1 4 3 -2 6 -13 5 -11 0 -14 -3 -6 -6z"/>
<path d="M4383 4653 c9 -2 23 -2 30 0 6 3 -1 5 -18 5 -16 0 -22 -2 -12 -5z"/>
<path d="M1960 2351 c-155 -23 -273 -83 -387 -197 -67 -67 -89 -98 -126 -175
-69 -144 -82 -205 -82 -399 0 -190 12 -248 75 -375 63 -127 162 -231 282 -295
174 -93 444 -99 634 -15 88 39 254 153 265 182 5 14 8 154 7 332 l-3 306 -322
1 -323 2 0 -139 0 -138 118 -3 117 -3 3 -76 c4 -103 -5 -123 -62 -138 -218
-55 -366 94 -366 367 0 228 119 377 300 376 75 0 164 -35 215 -84 l30 -29 80
96 c44 52 99 118 123 146 23 28 42 54 42 57 0 12 -133 103 -198 136 -110 55
-292 83 -422 65z"/>
<path d="M2603 2218 c35 -68 101 -192 146 -277 45 -85 113 -216 152 -292 l69
-137 0 -326 0 -326 200 0 200 0 0 326 0 326 156 297 c87 163 185 349 220 414
l62 117 -227 0 -227 0 -84 -211 c-46 -116 -87 -212 -90 -214 -3 -2 -44 92 -91
208 l-85 212 -233 3 -233 2 65 -122z"/>
<path d="M3860 1600 l0 -740 215 0 216 0 -3 394 c-2 217 -1 393 2 391 3 -2 59
-85 125 -184 66 -99 124 -181 128 -181 4 0 60 80 123 178 64 97 120 181 125
186 5 5 6 -164 2 -387 l-6 -397 241 0 242 0 0 483 c0 266 3 599 7 741 l6 256
-258 -2 -258 -3 -65 -125 c-110 -212 -153 -290 -161 -290 -4 0 -56 93 -117
208 l-110 207 -227 3 -227 2 0 -740z"/>
<path d="M5570 1600 l0 -740 373 0 373 0 52 174 c29 95 52 176 52 180 0 3 -97
6 -215 6 l-215 0 0 560 0 560 -210 0 -210 0 0 -740z"/>
<path d="M6790 2335 c0 -3 -43 -148 -96 -323 -85 -279 -133 -439 -277 -912
-41 -134 -67 -226 -67 -234 0 -3 94 -6 210 -6 l209 0 20 68 c11 37 28 97 38
135 l18 67 186 0 187 0 31 -117 c18 -65 34 -126 37 -135 5 -16 24 -18 220 -18
l214 0 -6 28 c-4 15 -70 232 -147 482 -77 250 -174 570 -216 710 l-77 255
-242 3 c-133 1 -242 0 -242 -3z m303 -662 c30 -116 53 -214 49 -217 -8 -9
-222 -7 -222 2 0 7 96 382 106 415 3 10 7 17 9 15 2 -2 28 -98 58 -215z"/>
<path d="M7820 1600 l0 -740 363 0 c403 0 446 5 562 62 124 60 204 161 231
289 42 201 -55 370 -233 407 l-38 8 56 26 c125 57 174 145 167 298 -3 71 -9
97 -33 144 -55 109 -185 202 -324 232 -49 10 -153 14 -408 14 l-343 0 0 -740z
m612 370 c74 -21 107 -94 72 -161 -22 -44 -67 -59 -179 -59 l-95 0 0 109 0
110 48 4 c95 7 118 7 154 -3z m37 -526 c18 -4 45 -20 62 -36 23 -24 29 -38 29
-74 0 -94 -53 -124 -220 -124 l-110 0 0 120 0 120 104 0 c57 0 118 -3 135 -6z"/>
</g>
</svg>
